<!DOCTYPE svg PUBLIC "-//W3C//DTD SVG 20010904//EN" "http://www.w3.org/TR/2001/REC-SVG-20010904/DTD/svg10.dtd">
<svg version="1.0" xmlns="http://www.w3.org/2000/svg" width="1600px" height="1600px" viewBox="0 0 16000 16000" preserveAspectRatio="xMidYMid meet">
<g id="layer1" fill="#ffffff" stroke="none">
 <path d="M3924 11995 c-142 -31 -264 -97 -368 -200 -116 -114 -188 -241 -218 -387 -11 -51 -13 -753 -13 -3753 l0 -3690 23 -79 c40 -139 94 -229 202 -336 107 -108 197 -162 336 -202 l79 -23 1360 0 c1267 0 1365 1 1435 18 250 58 463 254 548 502 l27 80 0 3745 0 3745 -26 72 c-46 124 -96 201 -193 299 -100 100 -172 146 -301 191 l-80 28 -1375 2 c-1121 1 -1386 -1 -1436 -12z"/>
 <path d="M9240 8324 c-35 -7 -101 -31 -145 -52 -164 -80 -280 -195 -361 -357 -80 -161 -75 -9 -72 -2112 l3 -1878 27 -80 c85 -248 298 -444 548 -502 70 -17 168 -18 1435 -18 l1360 0 79 23 c139 40 229 94 336 202 108 107 162 197 202 336 l23 79 0 1860 c0 1745 -1 1865 -18 1935 -58 250 -254 463 -502 548 l-80 27 -1385 2 c-1160 1 -1395 -1 -1450 -13z"/>
 </g>
<g id="layer2" fill="#1e88e5" stroke="none">
 <path d="M3095 13993 c-478 -86 -885 -441 -1040 -906 -71 -213 -65 235 -65 -5087 0 -5322 -6 -4874 65 -5087 135 -405 453 -723 858 -858 213 -71 -235 -65 5087 -65 5322 0 4874 -6 5087 65 405 135 723 453 858 858 71 213 65 -235 65 5087 0 5322 6 4874 -65 5087 -135 405 -453 723 -858 858 -213 71 237 65 -5097 64 -4144 -1 -4826 -3 -4895 -16z m3720 -2036 c125 -44 202 -92 291 -181 87 -87 139 -169 183 -289 l26 -72 3 -3720 c2 -3693 2 -3721 -18 -3800 -52 -210 -187 -377 -382 -475 -159 -79 -64 -75 -1593 -75 l-1360 0 -79 23 c-134 39 -230 95 -326 192 -97 96 -153 192 -192 326 l-23 79 0 3690 c0 3000 2 3702 13 3753 50 239 215 437 443 529 133 54 79 52 1559 50 l1375 -2 80 -28z m5291 -3657 c209 -53 376 -187 474 -382 81 -162 75 -2 75 -2093 l0 -1860 -23 -79 c-39 -134 -95 -230 -192 -326 -96 -97 -192 -153 -326 -192 l-79 -23 -1360 0 c-1529 0 -1434 -4 -1593 75 -195 98 -329 265 -382 474 -20 78 -20 112 -20 1935 0 2077 -5 1927 74 2086 81 162 179 258 341 337 146 70 63 66 1571 67 1329 1 1363 1 1440 -19z"/>
 </g>

</svg>